<svg width="33" height="34" viewBox="0 0 33 34" fill="none" xmlns="http://www.w3.org/2000/svg">
<path d="M16.8439 26.376C17.1081 26.376 17.3663 26.2976 17.5859 26.1506C17.8056 26.0037 17.9768 25.7948 18.0779 25.5504C18.179 25.306 18.2054 25.0371 18.1539 24.7776C18.1023 24.5182 17.9751 24.2799 17.7883 24.0928C17.6016 23.9058 17.3636 23.7784 17.1045 23.7268C16.8454 23.6752 16.5768 23.7017 16.3328 23.8029C16.0887 23.9041 15.8801 24.0755 15.7334 24.2955C15.5866 24.5154 15.5083 24.774 15.5083 25.0385C15.5083 25.3933 15.649 25.7335 15.8995 25.9843C16.15 26.2351 16.4897 26.376 16.8439 26.376ZM23.522 26.376C23.7862 26.376 24.0444 26.2976 24.2641 26.1506C24.4837 26.0037 24.6549 25.7948 24.756 25.5504C24.8571 25.306 24.8835 25.0371 24.832 24.7776C24.7805 24.5182 24.6533 24.2799 24.4665 24.0928C24.2797 23.9058 24.0417 23.7784 23.7826 23.7268C23.5235 23.6752 23.255 23.7017 23.0109 23.8029C22.7669 23.9041 22.5583 24.0755 22.4115 24.2955C22.2647 24.5154 22.1864 24.774 22.1864 25.0385C22.1864 25.3933 22.3271 25.7335 22.5776 25.9843C22.8281 26.2351 23.1678 26.376 23.522 26.376ZM23.522 21.0261C23.7862 21.0261 24.0444 20.9477 24.2641 20.8007C24.4837 20.6538 24.6549 20.4449 24.756 20.2005C24.8571 19.9561 24.8835 19.6872 24.832 19.4277C24.7805 19.1683 24.6533 18.93 24.4665 18.7429C24.2797 18.5559 24.0417 18.4285 23.7826 18.3769C23.5235 18.3253 23.255 18.3518 23.0109 18.453C22.7669 18.5542 22.5583 18.7257 22.4115 18.9456C22.2647 19.1656 22.1864 19.4241 22.1864 19.6887C22.1864 20.0434 22.3271 20.3836 22.5776 20.6344C22.8281 20.8852 23.1678 21.0261 23.522 21.0261ZM16.8439 21.0261C17.1081 21.0261 17.3663 20.9477 17.5859 20.8007C17.8056 20.6538 17.9768 20.4449 18.0779 20.2005C18.179 19.9561 18.2054 19.6872 18.1539 19.4277C18.1023 19.1683 17.9751 18.93 17.7883 18.7429C17.6016 18.5559 17.3636 18.4285 17.1045 18.3769C16.8454 18.3253 16.5768 18.3518 16.3328 18.453C16.0887 18.5542 15.8801 18.7257 15.7334 18.9456C15.5866 19.1656 15.5083 19.4241 15.5083 19.6887C15.5083 20.0434 15.649 20.3836 15.8995 20.6344C16.15 20.8852 16.4897 21.0261 16.8439 21.0261ZM26.1933 4.97651H24.8577V3.63904C24.8577 3.28432 24.7169 2.94413 24.4665 2.69331C24.216 2.44249 23.8763 2.30157 23.522 2.30157C23.1678 2.30157 22.8281 2.44249 22.5776 2.69331C22.3271 2.94413 22.1864 3.28432 22.1864 3.63904V4.97651H11.5014V3.63904C11.5014 3.28432 11.3607 2.94413 11.1102 2.69331C10.8597 2.44249 10.52 2.30157 10.1658 2.30157C9.81156 2.30157 9.47184 2.44249 9.22136 2.69331C8.97088 2.94413 8.83017 3.28432 8.83017 3.63904V4.97651H7.49454C6.43185 4.97651 5.41269 5.39925 4.66126 6.15172C3.90982 6.90419 3.48767 7.92476 3.48767 8.98892V27.7135C3.48767 28.7776 3.90982 29.7982 4.66126 30.5507C5.41269 31.3032 6.43185 31.7259 7.49454 31.7259H26.1933C27.256 31.7259 28.2751 31.3032 29.0266 30.5507C29.778 29.7982 30.2002 28.7776 30.2002 27.7135V8.98892C30.2002 7.92476 29.778 6.90419 29.0266 6.15172C28.2751 5.39925 27.256 4.97651 26.1933 4.97651ZM27.5289 27.7135C27.5289 28.0682 27.3882 28.4084 27.1377 28.6592C26.8872 28.91 26.5475 29.051 26.1933 29.051H7.49454C7.14031 29.051 6.80059 28.91 6.55011 28.6592C6.29964 28.4084 6.15892 28.0682 6.15892 27.7135V15.6763H27.5289V27.7135ZM27.5289 13.0013H6.15892V8.98892C6.15892 8.6342 6.29964 8.29401 6.55011 8.04319C6.80059 7.79236 7.14031 7.65145 7.49454 7.65145H8.83017V8.98892C8.83017 9.34364 8.97088 9.68383 9.22136 9.93465C9.47184 10.1855 9.81156 10.3264 10.1658 10.3264C10.52 10.3264 10.8597 10.1855 11.1102 9.93465C11.3607 9.68383 11.5014 9.34364 11.5014 8.98892V7.65145H22.1864V8.98892C22.1864 9.34364 22.3271 9.68383 22.5776 9.93465C22.8281 10.1855 23.1678 10.3264 23.522 10.3264C23.8763 10.3264 24.216 10.1855 24.4665 9.93465C24.7169 9.68383 24.8577 9.34364 24.8577 8.98892V7.65145H26.1933C26.5475 7.65145 26.8872 7.79236 27.1377 8.04319C27.3882 8.29401 27.5289 8.6342 27.5289 8.98892V13.0013ZM10.1658 21.0261C10.43 21.0261 10.6882 20.9477 10.9078 20.8007C11.1275 20.6538 11.2987 20.4449 11.3997 20.2005C11.5008 19.9561 11.5273 19.6872 11.4758 19.4277C11.4242 19.1683 11.297 18.93 11.1102 18.7429C10.9234 18.5559 10.6854 18.4285 10.4264 18.3769C10.1673 18.3253 9.89872 18.3518 9.65467 18.453C9.41062 18.5542 9.20202 18.7257 9.05526 18.9456C8.9085 19.1656 8.83017 19.4241 8.83017 19.6887C8.83017 20.0434 8.97088 20.3836 9.22136 20.6344C9.47184 20.8852 9.81156 21.0261 10.1658 21.0261ZM10.1658 26.376C10.43 26.376 10.6882 26.2976 10.9078 26.1506C11.1275 26.0037 11.2987 25.7948 11.3997 25.5504C11.5008 25.306 11.5273 25.0371 11.4758 24.7776C11.4242 24.5182 11.297 24.2799 11.1102 24.0928C10.9234 23.9058 10.6854 23.7784 10.4264 23.7268C10.1673 23.6752 9.89872 23.7017 9.65467 23.8029C9.41062 23.9041 9.20202 24.0755 9.05526 24.2955C8.9085 24.5154 8.83017 24.774 8.83017 25.0385C8.83017 25.3933 8.97088 25.7335 9.22136 25.9843C9.47184 26.2351 9.81156 26.376 10.1658 26.376Z" fill="white"/>
</svg>
