<svg width="33" height="33" viewBox="0 0 33 33" fill="none" xmlns="http://www.w3.org/2000/svg">
<path d="M15.3334 22.2432C15.2559 22.1676 14.9247 21.8823 14.6522 21.6165C12.9386 20.0581 10.1338 15.993 9.27763 13.8653C9.14006 13.5421 8.8489 12.7252 8.8302 12.2887C8.8302 11.8705 8.92637 11.4718 9.12137 11.0913C9.39383 10.617 9.82257 10.2366 10.3288 10.0281C10.68 9.89389 11.7312 9.68542 11.7499 9.68542C12.8998 9.47695 14.7684 9.36229 16.8333 9.36229C18.8006 9.36229 20.593 9.47695 21.7604 9.64763C21.7791 9.66718 23.0853 9.87565 23.5328 10.1037C24.3502 10.5219 24.8577 11.3389 24.8577 12.2131V12.2887C24.8377 12.8581 24.3301 14.0555 24.3114 14.0555C23.4539 16.0685 20.7867 20.0399 19.0143 21.636C19.0143 21.636 18.5589 22.0855 18.2744 22.281C17.8657 22.5858 17.3595 22.737 16.8533 22.737C16.2883 22.737 15.7621 22.5663 15.3334 22.2432Z" fill="white"/>
</svg>
