<svg width="33" height="34" viewBox="0 0 33 34" fill="none" xmlns="http://www.w3.org/2000/svg">
<path d="M10.6504 15.5031C10.7259 15.4257 11.0113 15.0944 11.2771 14.822C12.8354 13.1084 16.9006 10.3036 19.0283 9.44743C19.3514 9.30986 20.1684 9.01869 20.6048 8.99999C21.0231 8.99999 21.4218 9.09616 21.8022 9.29116C22.2765 9.56363 22.657 9.99236 22.8654 10.4986C22.9996 10.8498 23.2081 11.901 23.2081 11.9197C23.4166 13.0696 23.5312 14.9382 23.5312 17.0031C23.5312 18.9704 23.4166 20.7628 23.2459 21.9302C23.2264 21.9489 23.0179 23.2551 22.7899 23.7025C22.3716 24.5199 21.5547 25.0275 20.6804 25.0275L20.6048 25.0275C20.0355 25.0074 18.8381 24.4999 18.8381 24.4812C16.825 23.6237 12.8536 20.9565 11.2575 19.1841C11.2575 19.1841 10.808 18.7287 10.6126 18.4442C10.3077 18.0355 10.1566 17.5293 10.1566 17.0231C10.1566 16.4581 10.3272 15.9319 10.6504 15.5031Z" fill="white"/>
</svg>
