<svg width="37" height="40" viewBox="0 0 37 40" fill="none" xmlns="http://www.w3.org/2000/svg">
<rect width="37" height="40" fill="#E5E5E5"/>
<g clip-path="url(#clip0_0_1)">
<rect x="-328" y="-768" width="1920" height="1080" rx="32" fill="url(#paint0_radial_0_1)"/>
<g clip-path="url(#clip1_0_1)">
<g filter="url(#filter0_d_0_1)">
<g clip-path="url(#clip2_0_1)">
<path d="M-253 -698H1531V207C1531 237.928 1505.93 263 1475 263H-197C-227.928 263 -253 237.928 -253 207V-698Z" fill="url(#paint1_linear_0_1)"/>
<path opacity="0.4" d="M1530.66 -693.479H-259.759V263.442H1530.66V-693.479Z" fill="url(#paint2_linear_0_1)"/>
<path opacity="0.4" fill-rule="evenodd" clip-rule="evenodd" d="M404.307 -693.479C404.307 -693.479 502.512 137.147 1530.68 263.442H-259.759V-693.479H404.307Z" fill="url(#paint3_linear_0_1)"/>
<path fill-rule="evenodd" clip-rule="evenodd" d="M-259.759 -693.479C-259.759 -693.479 -213.853 -32.4954 139.522 263.48C139.522 263.48 492.897 559.456 139.522 263.48L-259.759 263.442V-693.479Z" fill="url(#paint4_linear_0_1)"/>
<path fill-rule="evenodd" clip-rule="evenodd" d="M-259.437 -689.517C-259.437 -689.517 -176.773 -167.919 39.6524 281.7L27.5313 285.528C27.5313 285.528 -201.678 -237.027 -259.437 -689.517Z" fill="url(#paint5_linear_0_1)"/>
<g opacity="0.2">
<path d="M519.27 263.997C452.147 198.601 384.881 107.483 319.352 -6.81152C266.946 -98.2357 215.507 -204.607 166.486 -322.978C83.0343 -524.525 34.8899 -693.23 34.4065 -694.914L35.6956 -695.335C36.179 -693.651 84.3055 -525.022 167.739 -323.571C244.727 -137.661 368.373 114.985 520.183 262.906L519.27 263.997Z" fill="#FFFFBF"/>
<path d="M485.717 263.327C412.185 186.869 340.747 89.187 273.392 -26.9641C219.5 -119.881 168.097 -224.76 120.579 -338.71C39.6704 -532.697 -2.40449 -687.775 -2.81628 -689.306L-1.52721 -689.708C-1.11541 -688.158 40.9415 -533.175 121.797 -339.265C196.422 -160.321 320.283 89.3018 486.649 262.294L485.717 263.327Z" fill="#FFFFBF"/>
<path d="M418.756 266.466C282.881 110.315 154.973 -140.8 71.6115 -323.954C-18.7152 -522.381 -77.6737 -685.995 -78.2646 -687.622L-77.0113 -688.139C-76.4204 -686.512 -17.4798 -522.936 72.8111 -324.567C156.137 -141.508 283.973 109.473 419.741 265.49L418.756 266.466Z" fill="#FFFFBF"/>
<path d="M360.03 263.901C221.219 71.6369 88.2982 -178.349 1.23009 -354.212C-93.0892 -544.754 -155.396 -691.737 -156.022 -693.191L-154.805 -693.785C-154.178 -692.33 -91.8896 -545.385 2.41177 -354.882C89.4441 -179.076 222.329 70.8522 361.086 263.021L360.03 263.901Z" fill="#FFFFBF"/>
<path d="M289.667 263.959C153.344 104.268 24.6846 -148.378 -59.2324 -332.203C-150.15 -531.357 -209.61 -694.856 -210.201 -696.483L-208.947 -697C-208.356 -695.373 -148.915 -531.912 -58.0149 -332.815C25.8662 -149.086 154.454 103.426 290.651 262.983L289.667 263.959Z" fill="#FFFFBF"/>
<path d="M157.874 263.94C53.3492 140.191 -54.7205 -112.417 -126.982 -302.538C-205.277 -508.487 -259.545 -687.507 -260.082 -689.287L-258.81 -689.727C-258.273 -687.947 -204.006 -508.965 -125.746 -303.055C-53.521 -113.049 54.4771 139.406 158.859 262.983L157.874 263.94Z" fill="#FFFFBF"/>
<path d="M79.8116 268.035C-10.3181 137.434 -96.7775 -104.418 -153.444 -284.319C-214.82 -479.186 -255.427 -645.346 -255.838 -646.991L-254.531 -647.355C-254.137 -645.709 -213.531 -479.588 -152.173 -284.759C-95.5421 -104.973 -9.13643 136.726 80.8859 267.174L79.8116 268.035Z" fill="#FFFFBF"/>
</g>
<g style="mix-blend-mode:multiply" opacity="0.3">
<path fill-rule="evenodd" clip-rule="evenodd" d="M-255.176 -654.685C-255.176 -654.685 -133.517 -41.2033 51.7915 299.365L117.93 307.939C117.912 307.939 -122.022 -35.9977 -255.176 -654.685Z" fill="url(#paint6_linear_0_1)"/>
</g>
</g>
</g>
<g clip-path="url(#clip3_0_1)">
<path d="M-87.6682 193C-109.346 193 -127 174.839 -127 152.538V-350.856C-127 -373.188 -109.346 -391.318 -87.6682 -391.318H783.668C805.377 -391.318 823 -373.157 823 -350.856V152.538C823 174.87 805.346 193 783.668 193H-87.6682Z" fill="#FFCA7B"/>
<path d="M-87.6682 177.318C-109.346 177.318 -127 159.157 -127 136.856V-366.538C-127 -388.87 -109.346 -407 -87.6682 -407H783.668C805.377 -407 823 -388.839 823 -366.538V136.856C823 159.188 805.346 177.318 783.668 177.318H-87.6682Z" fill="#FDE8B3"/>
<path d="M783.668 164.771H-87.6682C-102.669 164.771 -114.804 152.256 -114.804 136.855V-366.539C-114.804 -381.971 -102.639 -394.454 -87.6682 -394.454H783.668C798.669 -394.454 810.804 -381.939 810.804 -366.539V136.855C810.804 152.287 798.669 164.771 783.668 164.771Z" fill="#FFF6D4"/>
<path d="M783.668 164.771H-87.6682C-102.669 164.771 -114.804 152.256 -114.804 136.855V-366.539C-114.804 -381.971 -102.639 -394.454 -87.6682 -394.454H783.668C798.669 -394.454 810.804 -381.939 810.804 -366.539V136.855C810.804 152.287 798.669 164.771 783.668 164.771Z" stroke="#FFB489" stroke-width="3" stroke-miterlimit="2.61313" stroke-linecap="round" stroke-dasharray="10 10"/>
<g clip-path="url(#clip4_0_1)">
<path d="M17.9181 5.88573C20.8971 5.88573 24.0279 16.1556 24.0279 16.1556C24.0279 16.1556 31.6524 13.8381 34.9792 15.1048C35.9532 15.4762 35.8805 17.7143 35.4378 19.0667C34.5017 21.9048 28.626 27.6413 28.626 27.6413C28.626 27.6413 31.2855 37.9778 28.8758 39.7365C26.4661 41.4952 17.9181 35.0349 17.9181 35.0349C17.9181 35.0349 9.37333 41.4952 6.96042 39.7365C4.55068 37.9778 7.33042 27.2064 7.33042 27.2064C7.33042 27.2064 1.09735 22.7365 0.189739 18.8159C-0.0189791 17.9206 -0.268808 15.3683 0.705209 14.9968C4.03205 13.7333 11.8052 16.1556 11.8052 16.1556C11.8052 16.1556 14.9391 5.88573 17.9181 5.88573Z" fill="#FF7F0E"/>
<path d="M17.9182 2.40636C20.8972 2.40636 24.028 12.6762 24.028 12.6762C24.028 12.6762 34.7264 12.4921 35.6466 15.3365C36.5669 18.181 27.8039 24.3429 27.8039 24.3429C27.8039 24.3429 31.2825 34.4984 28.8728 36.2572C26.463 38.0159 17.9151 31.5556 17.9151 31.5556C17.9151 31.5556 9.37029 38.0159 6.95739 36.2572C4.54764 34.4984 8.02628 24.3429 8.02628 24.3429C8.02628 24.3429 -0.73039 18.181 0.189867 15.3365C1.11012 12.4921 11.8085 12.6762 11.8085 12.6762C11.8085 12.6762 14.9393 2.40636 17.9182 2.40636Z" fill="url(#paint7_linear_0_1)"/>
<path d="M28.8758 36.2571C28.6703 36.4032 28.4299 36.5301 28.1674 36.5714C27.9113 36.6254 27.6456 36.6254 27.3863 36.6159C26.8645 36.5809 26.3522 36.4635 25.8526 36.3143C24.8596 36.0032 23.914 35.5651 22.9906 35.0952C22.064 34.6286 21.1785 34.092 20.3026 33.5428C19.4297 32.9841 18.5822 32.4032 17.7442 31.7841H18.092C17.254 32.4 16.4033 32.9841 15.5337 33.5428C14.6577 34.092 13.7722 34.6286 12.8456 35.0952C11.9222 35.5651 10.9767 36 9.98367 36.3111C9.48402 36.4571 8.97487 36.5778 8.44991 36.6127C8.18743 36.6222 7.92496 36.6254 7.6688 36.5682C7.40949 36.527 7.16914 36.4032 6.96043 36.2539C7.18496 36.3778 7.4253 36.4698 7.68145 36.4793C7.93128 36.5111 8.18427 36.4889 8.4341 36.4571C8.93376 36.3809 9.41761 36.2254 9.89196 36.0413C10.8407 35.6825 11.7483 35.2095 12.6338 34.7016C14.3952 33.6762 16.1061 32.5333 17.7442 31.3206L17.9181 31.1905L18.092 31.3206C19.727 32.5365 21.4379 33.6762 23.2025 34.7047C24.0848 35.2127 24.9956 35.6857 25.9443 36.0444C26.4155 36.2286 26.9025 36.3873 27.4021 36.4603C27.652 36.492 27.905 36.5143 28.1548 36.4825C28.4078 36.473 28.6481 36.3809 28.8758 36.2571Z" fill="#FFF3C7"/>
<path d="M17.9181 6.00953C20.2678 6.00953 22.7408 14.1143 22.7408 14.1143C22.7408 14.1143 31.1812 13.9683 31.9054 16.2127C32.6327 18.4571 25.7197 23.3206 25.7197 23.3206C25.7197 23.3206 28.4647 31.3333 26.5641 32.7206C24.6635 34.1079 17.9181 29.0095 17.9181 29.0095C17.9181 29.0095 11.1759 34.1079 9.27214 32.7206C7.37154 31.3333 10.1165 23.3206 10.1165 23.3206C10.1165 23.3206 3.2035 18.454 3.93085 16.2127C4.6582 13.9683 13.0986 14.1143 13.0986 14.1143C13.0986 14.1143 15.5685 6.00953 17.9181 6.00953Z" fill="#CF6100"/>
<path d="M17.9181 5.42857C20.2678 5.42857 22.7408 13.5333 22.7408 13.5333C22.7408 13.5333 31.1812 13.3873 31.9086 15.6317C32.6359 17.8762 25.7229 22.7397 25.7229 22.7397C25.7229 22.7397 28.4679 30.7524 26.5673 32.1397C24.6667 33.527 17.9213 28.4286 17.9213 28.4286C17.9213 28.4286 11.1791 33.527 9.2753 32.1397C7.3747 30.7524 10.1197 22.7397 10.1197 22.7397C10.1197 22.7397 3.2035 17.8762 3.93085 15.6317C4.65821 13.3873 13.0986 13.5333 13.0986 13.5333C13.0986 13.5333 15.5685 5.42857 17.9181 5.42857Z" fill="url(#paint8_linear_0_1)"/>
<path d="M17.9181 5.42857C20.2678 5.42857 22.7408 13.5333 22.7408 13.5333C22.7408 13.5333 31.1812 13.3873 31.9086 15.6317C32.6359 17.8762 25.7229 22.7397 25.7229 22.7397C25.7229 22.7397 28.4679 30.7524 26.5673 32.1397C24.6667 33.527 17.9213 28.4286 17.9213 28.4286C17.9213 28.4286 11.1791 33.527 9.2753 32.1397C7.3747 30.7524 10.1197 22.7397 10.1197 22.7397C10.1197 22.7397 3.2035 17.8762 3.93085 15.6317C4.65821 13.3873 13.0986 13.5333 13.0986 13.5333C13.0986 13.5333 15.5685 5.42857 17.9181 5.42857Z" fill="url(#paint9_linear_0_1)"/>
<path d="M26.5641 32.1397C26.3965 32.2508 26.2068 32.346 26.0044 32.3714C25.802 32.4127 25.5964 32.4095 25.3909 32.3968C24.9829 32.3651 24.5813 32.2667 24.1923 32.146C23.4144 31.8952 22.6744 31.5429 21.9502 31.1683C21.226 30.7937 20.5303 30.4222 19.844 29.9841C19.1578 29.5429 18.4874 29.2381 17.8296 28.6571H18.0035C17.3457 29.2381 16.6721 29.5429 15.9891 29.9841C15.3028 30.4222 14.6103 30.8222 13.8829 31.1968C13.1619 31.5714 12.4187 31.9079 11.6408 32.1619C11.2518 32.2825 10.8502 32.3746 10.4422 32.4064C10.2367 32.4191 10.0311 32.4159 9.82872 32.3778C9.62316 32.3524 9.43658 32.2571 9.26897 32.146C9.44291 32.2476 9.63265 32.327 9.83504 32.3397C10.0343 32.3683 10.2367 32.3524 10.4359 32.3302C10.8344 32.2762 11.2202 32.1556 11.5965 32.0159C12.3523 31.7397 13.0733 31.3714 13.7785 30.9746C15.1827 30.1778 16.5393 29.2825 17.8296 28.3175L17.915 28.254L18.0003 28.3175C19.2938 29.2857 20.6473 30.1778 22.0514 30.9746C22.7534 31.3714 23.4776 31.7397 24.2334 32.0159C24.6097 32.1556 24.9956 32.2762 25.394 32.3302C25.5933 32.3524 25.7956 32.3683 25.9949 32.3397C26.2004 32.3206 26.387 32.2413 26.5641 32.1397Z" fill="#FFFC81"/>
<g style="mix-blend-mode:screen" opacity="0.65">
<path d="M31.9054 15.6317C31.178 13.3873 22.7376 13.5333 22.7376 13.5333C22.7376 13.5333 20.2678 5.42857 17.9181 5.42857C15.5685 5.42857 13.0955 13.5333 13.0955 13.5333C13.0955 13.5333 4.65504 13.3873 3.92769 15.6317C3.68735 16.3714 4.28188 17.3968 5.18 18.4381C8.8041 20.6889 13.0765 21.9905 17.6493 21.9905C22.7028 21.9905 27.3863 20.4 31.235 17.6984C31.7884 16.9238 32.0888 16.1936 31.9054 15.6317Z" fill="url(#paint10_linear_0_1)"/>
</g>
<g style="mix-blend-mode:screen">
<path d="M18.9301 12.1905C22.2834 12.1905 25.0019 9.46154 25.0019 6.09524C25.0019 2.72893 22.2834 0 18.9301 0C15.5767 0 12.8583 2.72893 12.8583 6.09524C12.8583 9.46154 15.5767 12.1905 18.9301 12.1905Z" fill="url(#paint11_radial_0_1)"/>
</g>
</g>
</g>
</g>
</g>
<defs>
<filter id="filter0_d_0_1" x="-280" y="-721" width="1838" height="1015" filterUnits="userSpaceOnUse" color-interpolation-filters="sRGB">
<feFlood flood-opacity="0" result="BackgroundImageFix"/>
<feColorMatrix in="SourceAlpha" type="matrix" values="0 0 0 0 0 0 0 0 0 0 0 0 0 0 0 0 0 0 127 0" result="hardAlpha"/>
<feOffset dy="4"/>
<feGaussianBlur stdDeviation="13.5"/>
<feColorMatrix type="matrix" values="0 0 0 0 0.704167 0 0 0 0 0.41581 0 0 0 0 0.149635 0 0 0 0.25 0"/>
<feBlend mode="normal" in2="BackgroundImageFix" result="effect1_dropShadow_0_1"/>
<feBlend mode="normal" in="SourceGraphic" in2="effect1_dropShadow_0_1" result="shape"/>
</filter>
<radialGradient id="paint0_radial_0_1" cx="0" cy="0" r="1" gradientUnits="userSpaceOnUse" gradientTransform="translate(632 -228) rotate(90) scale(649.5 1879.8)">
<stop stop-color="#FFDB7E"/>
<stop offset="1" stop-color="#FF7A00"/>
</radialGradient>
<linearGradient id="paint1_linear_0_1" x1="639" y1="-698" x2="639" y2="263" gradientUnits="userSpaceOnUse">
<stop stop-color="#FFB648"/>
<stop offset="1" stop-color="#FFB648"/>
</linearGradient>
<linearGradient id="paint2_linear_0_1" x1="635.457" y1="263.433" x2="635.457" y2="-693.487" gradientUnits="userSpaceOnUse">
<stop offset="0.0171" stop-color="#FFC42C"/>
<stop offset="0.9665" stop-color="#FFD600"/>
</linearGradient>
<linearGradient id="paint3_linear_0_1" x1="635.457" y1="263.433" x2="635.457" y2="-693.487" gradientUnits="userSpaceOnUse">
<stop offset="0.0171" stop-color="#FF8B2C"/>
<stop offset="0.0422" stop-color="#FF8D2A"/>
<stop offset="0.3782" stop-color="#FFA413"/>
<stop offset="0.6939" stop-color="#FFB105"/>
<stop offset="0.9665" stop-color="#FFB600"/>
</linearGradient>
<linearGradient id="paint4_linear_0_1" x1="18.4093" y1="395.008" x2="18.4093" y2="-693.487" gradientUnits="userSpaceOnUse">
<stop offset="0.0171" stop-color="#FFA12C"/>
<stop offset="0.9665" stop-color="#FFB600"/>
</linearGradient>
<linearGradient id="paint5_linear_0_1" x1="-109.896" y1="285.532" x2="-109.896" y2="-689.509" gradientUnits="userSpaceOnUse">
<stop offset="0.0171" stop-color="#FFAE2C"/>
<stop offset="0.9665" stop-color="#FFCD00"/>
</linearGradient>
<linearGradient id="paint6_linear_0_1" x1="-255.183" y1="-173.373" x2="117.916" y2="-173.373" gradientUnits="userSpaceOnUse">
<stop offset="0.00558659" stop-color="#DB5098"/>
<stop offset="1" stop-color="#FFFED1"/>
</linearGradient>
<linearGradient id="paint7_linear_0_1" x1="17.9187" y1="37.2063" x2="17.9187" y2="2.33556" gradientUnits="userSpaceOnUse">
<stop stop-color="#FF9302"/>
<stop offset="1" stop-color="#FCD60A"/>
</linearGradient>
<linearGradient id="paint8_linear_0_1" x1="3.87713" y1="18.9038" x2="31.96" y2="18.9038" gradientUnits="userSpaceOnUse">
<stop stop-color="#FDE329"/>
<stop offset="1" stop-color="#FFED78"/>
</linearGradient>
<linearGradient id="paint9_linear_0_1" x1="3.87713" y1="18.9038" x2="31.96" y2="18.9038" gradientUnits="userSpaceOnUse">
<stop stop-color="#FDE329"/>
<stop offset="1" stop-color="#FFED78"/>
</linearGradient>
<linearGradient id="paint10_linear_0_1" x1="3.87728" y1="13.709" x2="31.96" y2="13.709" gradientUnits="userSpaceOnUse">
<stop stop-color="white"/>
<stop offset="1"/>
</linearGradient>
<radialGradient id="paint11_radial_0_1" cx="0" cy="0" r="1" gradientUnits="userSpaceOnUse" gradientTransform="translate(18.9312 6.09467) scale(6.07123 6.09467)">
<stop stop-color="white"/>
<stop offset="0.1095" stop-color="#CBCBCB"/>
<stop offset="0.2511" stop-color="#8E8E8E"/>
<stop offset="0.3874" stop-color="#5B5B5B"/>
<stop offset="0.5145" stop-color="#343434"/>
<stop offset="0.6305" stop-color="#171717"/>
<stop offset="0.7314" stop-color="#060606"/>
<stop offset="0.8062"/>
</radialGradient>
<clipPath id="clip0_0_1">
<rect x="-328" y="-768" width="1920" height="1080" rx="32" fill="white"/>
</clipPath>
<clipPath id="clip1_0_1">
<rect width="1920" height="1104" fill="white" transform="translate(-328 -768)"/>
</clipPath>
<clipPath id="clip2_0_1">
<path d="M-253 -698H1531V207C1531 237.928 1505.93 263 1475 263H-197C-227.928 263 -253 237.928 -253 207V-698Z" fill="white"/>
</clipPath>
<clipPath id="clip3_0_1">
<rect width="1520" height="600" fill="white" transform="translate(-127 -407)"/>
</clipPath>
<clipPath id="clip4_0_1">
<rect width="37" height="40" fill="white"/>
</clipPath>
</defs>
</svg>
